<svg viewBox="0 0 24 24" width="200" height="200" xmlns="http://www.w3.org/2000/svg" fill="none" stroke="white" stroke-width="1" stroke-linecap="round" stroke-linejoin="round">
  <path d="M10.325 4.317c.426-1.756 2.924-1.756 3.35 0a1.724 1.724 0 0 0 2.573 1.066c1.543-.94 3.306.823 2.367 2.367a1.724 1.724 0 0 0 1.066 2.573c1.756.426 1.756 2.924 0 3.35a1.724 1.724 0 0 0-1.066 2.573c.94 1.543-.823 3.306-2.367 2.367a1.724 1.724 0 0 0-2.573 1.066c-.426 1.756-2.924 1.756-3.35 0a1.724 1.724 0 0 0-2.573-1.066c-1.543.94-3.306-.823-2.367-2.367a1.724 1.724 0 0 0-1.066-2.573c-1.756-.426-1.756-2.924 0-3.35a1.724 1.724 0 0 0 1.066-2.573c-.94-1.543.823-3.306 2.367-2.367.967.59 2.22.04 2.573-1.066z"/>
  <circle cx="12" cy="12" r="3"/>
</svg>
